<?xml version="1.0" encoding="UTF-8"?>
<svg id="Layer_1" data-name="Layer 1" xmlns="http://www.w3.org/2000/svg" viewBox="0 0 746.53 247.92">
  <defs>
    <style>
      .cls-1 {
        fill: none;
      }

      .cls-2 {
        stroke: #000;
        stroke-miterlimit: 10;
      }
    </style>
  </defs>
  <rect class="cls-1" x="11.15" y="20.55" width="730.93" height="184.34"/>
  <path d="M162.58,167.06c-8.45,10.92-21.45,17.03-35.1,17.03-24.44,0-44.33-19.63-44.33-44.07s19.89-44.2,44.33-44.2c12.22,0,24.31,5.2,32.63,14.17l-10.01,9.49c-6.11-6.37-14.04-9.75-22.62-9.75-16.77,0-30.55,13.39-30.55,30.29s13.78,30.42,30.55,30.42c9.49,0,18.33-4.42,24.31-11.83l10.79,8.45Z"/>
  <path d="M260.46,150.81c-4.94,19.63-22.75,33.28-43.03,33.28-24.44,0-44.46-19.63-44.46-44.07s20.02-44.2,44.46-44.2c19.37,0,36.4,13,43.03,31.07l-68.25,30.42c5.85,8.19,15.08,13.13,25.22,13.13,13.78,0,26.26-9.36,29.77-22.88l13.26,3.25ZM240.83,120.52c-5.85-7.02-14.43-10.79-23.4-10.79-17.03,0-30.68,13.39-30.68,30.29,0,1.69.13,2.99.39,4.42l53.69-23.92Z"/>
  <path class="cls-2" d="M377.39,99.73l-24.13,83.84h-10.56l-18.72-62.26-17.18,62.26h-10.71l-25.19-83.84h13.07l18.26,62.5,17.42-62.5h9.52l18.87,62.75,18.84-62.75h10.5Z"/>
  <path d="M475.74,150.81c-4.94,19.63-22.75,33.28-43.03,33.28-24.44,0-44.46-19.63-44.46-44.07s20.02-44.2,44.46-44.2c19.37,0,36.4,13,43.03,31.07l-68.25,30.42c5.85,8.19,15.08,13.13,25.22,13.13,13.78,0,26.26-9.36,29.77-22.88l13.26,3.25ZM456.11,120.52c-5.85-7.02-14.43-10.79-23.4-10.79-17.03,0-30.68,13.39-30.68,30.29,0,1.69.13,2.99.39,4.42l53.69-23.92Z"/>
  <path d="M483.41,184.22l37.44-46.93-31.98-40.17h17.55l23.27,29.12,23.01-28.99h17.42l-31.72,40.04,37.44,46.93h-17.55l-28.6-35.88-28.73,35.88h-17.55Z"/>
  <path d="M595.86,96.99h41.34c17.94,0,32.24,14.56,32.24,32.37v54.21h-13.78v-3.9c-4.29,2.6-9.23,4.03-14.56,4.03h-30.16c-15.6,0-28.21-12.74-28.21-28.6s12.61-28.34,28.21-28.34h30.16c5.33,0,10.27,1.43,14.56,4.16v-1.56c0-10.14-8.45-18.46-18.46-18.46h-41.34v-13.91ZM641.1,140.54h-30.16c-8.06,0-14.56,6.63-14.56,14.56s6.5,14.82,14.56,14.82h30.16c13.13,0,19.37-16.12,10.27-25.09-2.6-2.6-6.24-4.29-10.27-4.29Z"/>
</svg>