<svg width="587" height="89" viewBox="0 0 587 89" fill="none" xmlns="http://www.w3.org/2000/svg">
<path d="M79.43 71.24C70.98 82.16 57.98 88.27 44.33 88.27C19.89 88.27 0 68.64 0 44.2C0 19.76 19.89 0 44.33 0C56.55 0 68.64 5.2 76.96 14.17L66.95 23.66C60.84 17.29 52.91 13.91 44.33 13.91C27.56 13.91 13.78 27.3 13.78 44.2C13.78 61.1 27.56 74.62 44.33 74.62C53.82 74.62 62.66 70.2 68.64 62.79L79.43 71.24Z" fill="#F26522"/>
<path d="M177.31 54.99C172.37 74.62 154.56 88.27 134.28 88.27C109.84 88.27 89.8201 68.64 89.8201 44.2C89.8201 19.76 109.84 0 134.28 0C153.65 0 170.68 13 177.31 31.07L109.06 61.49C114.91 69.68 124.14 74.62 134.28 74.62C148.06 74.62 160.54 65.26 164.05 51.74L177.31 54.99ZM157.68 24.7C151.83 17.68 143.25 13.91 134.28 13.91C117.25 13.91 103.6 27.3 103.6 44.2C103.6 45.89 103.73 47.19 103.99 48.62L157.68 24.7Z" fill="#F26522"/>
<path d="M294.24 3.91003L270.11 87.75H259.55L240.83 25.49L223.65 87.75H212.94L187.75 3.91003H200.82L219.08 66.41L236.5 3.91003H246.02L264.89 66.66L283.73 3.91003H294.23H294.24Z" fill="#F26522" stroke="#F26522" stroke-miterlimit="10"/>
<path d="M392.59 54.99C387.65 74.62 369.84 88.27 349.56 88.27C325.12 88.27 305.1 68.64 305.1 44.2C305.1 19.76 325.12 0 349.56 0C368.93 0 385.96 13 392.59 31.07L324.34 61.49C330.19 69.68 339.42 74.62 349.56 74.62C363.34 74.62 375.82 65.26 379.33 51.74L392.59 54.99ZM372.96 24.7C367.11 17.68 358.53 13.91 349.56 13.91C332.53 13.91 318.88 27.3 318.88 44.2C318.88 45.89 319.01 47.19 319.27 48.62L372.96 24.7Z" fill="#F26522"/>
<path d="M400.26 88.4001L437.7 41.47L405.72 1.30005H423.27L446.54 30.4201L469.55 1.43005H486.97L455.25 41.47L492.69 88.4001H475.14L446.54 52.5201L417.81 88.4001H400.26Z" fill="#F26522"/>
<path d="M512.71 1.17004H554.05C571.99 1.17004 586.29 15.73 586.29 33.54V87.75H572.51V83.85C568.22 86.45 563.28 87.88 557.95 87.88H527.79C512.19 87.88 499.58 75.14 499.58 59.28C499.58 43.42 512.19 30.94 527.79 30.94H557.95C563.28 30.94 568.22 32.37 572.51 35.1V33.54C572.51 23.4 564.06 15.08 554.05 15.08H512.71V1.17004ZM557.95 44.72H527.79C519.73 44.72 513.23 51.35 513.23 59.28C513.23 67.21 519.73 74.1 527.79 74.1H557.95C571.08 74.1 577.32 57.98 568.22 49.01C565.62 46.41 561.98 44.72 557.95 44.72Z" fill="#F26522"/>
</svg>
