<?xml version="1.0" encoding="UTF-8"?>
<svg id="Layer_1" data-name="Layer 1" xmlns="http://www.w3.org/2000/svg" viewBox="0 0 746.53 247.92">
  <defs>
    <style>
      .cls-1 {
        fill: #fff;
      }

      .cls-2 {
        fill: none;
      }

      .cls-3 {
        fill: #f26522;
      }
    </style>
  </defs>
  <g>
    <rect class="cls-2" x="152.94" y="71.91" width="594.12" height="139.91"/>
    <path class="cls-1" d="M289.46,144.21c-6.5,8.4-16.5,13.1-27,13.1-18.8,0-34.1-15.1-34.1-33.9s15.3-34,34.1-34c9.4,0,18.7,4,25.1,10.9l-7.7,7.3c-4.7-4.9-10.8-7.5-17.4-7.5-12.9,0-23.5,10.3-23.5,23.3s10.6,23.4,23.5,23.4c7.3,0,14.1-3.4,18.7-9.1l8.3,6.5Z"/>
    <path class="cls-1" d="M364.76,131.71c-3.8,15.1-17.5,25.6-33.1,25.6-18.8,0-34.2-15.1-34.2-33.9s15.4-34,34.2-34c14.9,0,28,10,33.1,23.9l-52.5,23.4c4.5,6.3,11.6,10.1,19.4,10.1,10.6,0,20.2-7.2,22.9-17.6l10.2,2.5ZM349.66,108.41c-4.5-5.4-11.1-8.3-18-8.3-13.1,0-23.6,10.3-23.6,23.3,0,1.3.1,2.3.3,3.4l41.3-18.4Z"/>
    <path class="cls-1" d="M448.76,90.51l-32.7,66.8h-12l-32.9-66.8h11.6l27.3,55.1,27-55.1h11.7Z"/>
    <path class="cls-1" d="M522.15,131.71c-3.8,15.1-17.5,25.6-33.1,25.6-18.8,0-34.2-15.1-34.2-33.9s15.4-34,34.2-34c14.9,0,28,10,33.1,23.9l-52.5,23.4c4.5,6.3,11.6,10.1,19.4,10.1,10.6,0,20.2-7.2,22.9-17.6l10.2,2.5ZM507.05,108.41c-4.5-5.4-11.1-8.3-18-8.3-13.1,0-23.6,10.3-23.6,23.3,0,1.3.1,2.3.3,3.4l41.3-18.4Z"/>
    <path class="cls-1" d="M528.05,157.41l28.8-36.1-24.6-30.9h13.5l17.9,22.4,17.7-22.3h13.4l-24.4,30.8,28.8,36.1h-13.5l-22-27.6-22.1,27.6h-13.5Z"/>
    <path class="cls-1" d="M614.55,90.31h31.8c13.8,0,24.8,11.2,24.8,24.9v41.7h-10.6v-3c-3.3,2-7.1,3.1-11.2,3.1h-23.2c-12,0-21.7-9.8-21.7-22s9.7-21.8,21.7-21.8h23.2c4.1,0,7.9,1.1,11.2,3.2v-1.2c0-7.8-6.5-14.2-14.2-14.2h-31.8v-10.7ZM649.35,123.81h-23.2c-6.2,0-11.2,5.1-11.2,11.2s5,11.4,11.2,11.4h23.2c10.1,0,14.9-12.4,7.9-19.3-2-2-4.8-3.3-7.9-3.3Z"/>
  </g>
  <g>
    <rect class="cls-2" x="74.27" y="1.49" width="149.63" height="226.29"/>
    <path class="cls-3" d="M88.87,89.71s4.67-22.9,33.81-22.9h86.32s4.83,23.06-23.99,23.06l-96.13-.16ZM208.99,180.85h-86.16c-23.68,0-33.81-16.2-33.81-33.03v-35.21h19.94v33.97c0,5.61,3.9,11.22,12.31,11.22h87.72v23.06Z"/>
  </g>
</svg>